<?xml version="1.0" standalone="no"?>
<!DOCTYPE svg PUBLIC "-//W3C//DTD SVG 20010904//EN"
 "http://www.w3.org/TR/2001/REC-SVG-20010904/DTD/svg10.dtd">
<svg version="1.0" xmlns="http://www.w3.org/2000/svg"
 width="600.000000pt" height="600.000000pt" viewBox="0 0 600.000000 600.000000"
 preserveAspectRatio="xMidYMid meet">
<metadata>
Created by potrace 1.14, written by Peter Selinger 2001-2017
</metadata>
<g transform="translate(0.000000,600.000000) scale(0.100000,-0.100000)"
fill="#000000" stroke="none">
<path d="M2858 5385 c-2 -3 0 -33 5 -68 6 -34 11 -186 11 -337 1 -252 -1 -284
-22 -379 -50 -228 -118 -362 -311 -616 -393 -516 -485 -822 -355 -1184 44
-124 103 -222 183 -302 67 -67 190 -149 223 -149 10 0 18 -3 18 -8 0 -8 92
-32 123 -32 9 0 17 -4 17 -9 0 -14 279 -4 340 12 219 57 388 213 460 423 21
60 23 67 39 144 16 71 5 273 -19 370 -24 97 -84 227 -130 283 -34 40 -140 117
-162 117 -8 0 -19 5 -24 10 -6 6 -19 12 -30 15 -10 2 -39 9 -64 16 -53 13
-214 6 -233 -10 -8 -6 -17 -8 -21 -4 -4 4 -10 3 -14 -2 -4 -6 -23 -17 -42 -26
-46 -22 -115 -83 -149 -133 -50 -75 -94 -221 -87 -287 13 -109 41 -181 93
-235 34 -36 77 -64 98 -64 8 0 15 -4 15 -8 0 -4 10 -9 23 -10 22 -2 52 -5 155
-17 36 -4 52 -3 52 5 0 6 5 8 11 5 6 -4 5 2 -3 14 -7 12 -17 19 -23 18 -5 -2
-30 5 -55 15 -119 51 -164 111 -164 223 0 118 58 211 154 250 48 19 180 29
180 14 0 -5 3 -8 8 -7 20 4 84 -36 116 -74 70 -81 119 -225 109 -319 -13 -127
-61 -249 -127 -326 -38 -43 -130 -106 -140 -96 -3 4 -6 1 -6 -4 0 -6 -18 -14
-40 -18 -22 -4 -40 -10 -40 -14 0 -5 -11 -6 -25 -3 -14 2 -25 0 -25 -5 0 -6
-21 -10 -46 -9 -25 1 -48 -2 -51 -7 -3 -4 -11 -3 -18 3 -9 8 -15 8 -20 0 -3
-6 -11 -7 -17 -4 -6 4 -23 8 -37 8 -14 1 -51 10 -81 21 -30 11 -58 18 -62 17
-5 -1 -8 3 -8 9 0 5 -4 7 -10 4 -5 -3 -10 -2 -10 4 0 5 -8 12 -18 15 -30 10
-117 97 -146 148 -38 66 -67 172 -68 248 -1 123 50 317 118 455 64 129 78 152
164 268 131 175 224 344 269 487 34 108 61 291 61 420 0 221 -25 396 -87 600
-33 112 -44 136 -55 125z"/>
<path d="M3765 3112 l0 -237 -34 -95 c-76 -215 -168 -343 -359 -497 -53 -43
-100 -82 -104 -88 -4 -5 -8 -7 -8 -2 0 4 -8 -1 -18 -10 -10 -10 -31 -27 -46
-38 -16 -11 -36 -27 -45 -35 -9 -8 -32 -26 -51 -40 -75 -53 -195 -173 -261
-260 -59 -77 -135 -240 -159 -338 -22 -88 -29 -229 -15 -322 16 -112 76 -265
146 -370 44 -67 149 -181 159 -175 4 3 -3 31 -15 62 -58 143 -111 447 -100
565 12 131 65 276 136 372 56 76 228 244 324 316 33 24 69 52 80 62 11 9 40
33 65 53 70 56 185 172 216 218 16 23 31 44 34 47 30 29 107 226 136 348 22
91 30 319 15 422 -13 84 -63 245 -84 267 -9 9 -12 -44 -12 -225z"/>
</g>
</svg>
